# xmcd CD database file
#
# Track frame offsets:
#	150
#	21345
#	42480
#
# Disc length: 848 seconds
#
# Revision: 0
# Processed by: cddbd v1.5PL3 Copyright (c) Steve Scherf et al.
# Submitted via: CDex 1.50beta9
#
DISCID=21034e03
DTITLE=大城光恵 - 青年よ大志を抱け
DYEAR=1992
DGENRE=J-POP
TTITLE0=青年よ大志を抱け
TTITLE1=娘達よ大志を抱け
TTITLE2=青年よ大志を抱け　カラオケ
EXTD=YEAR: 1992
EXTT0=
EXTT1=
EXTT2=
PLAYORDER=
